<svg width="20" height="20" viewBox="0 0 20 20" fill="none" xmlns="http://www.w3.org/2000/svg">
<path d="M6.66536 13.3333H3.33203L8.33203 18.3333V1.66663H6.66536V13.3333ZM11.6654 4.16663V18.3333H13.332V6.66663H16.6654L11.6654 1.66663V4.16663Z" fill="#282828"/>
<path d="M6.66536 13.3333H3.33203L8.33203 18.3333V1.66663H6.66536V13.3333ZM11.6654 4.16663V18.3333H13.332V6.66663H16.6654L11.6654 1.66663V4.16663Z" fill="black" fill-opacity="0.2"/>
<path d="M6.66536 13.3333H3.33203L8.33203 18.3333V1.66663H6.66536V13.3333ZM11.6654 4.16663V18.3333H13.332V6.66663H16.6654L11.6654 1.66663V4.16663Z" fill="black" fill-opacity="0.2"/>
<path d="M6.66536 13.3333H3.33203L8.33203 18.3333V1.66663H6.66536V13.3333ZM11.6654 4.16663V18.3333H13.332V6.66663H16.6654L11.6654 1.66663V4.16663Z" fill="black" fill-opacity="0.2"/>
</svg>
