<svg width="20" height="20" viewBox="0 0 20 20" fill="none" xmlns="http://www.w3.org/2000/svg">
<path fill-rule="evenodd" clip-rule="evenodd" d="M2.72527 5.96321L8.50563 1.91571C8.81596 1.69849 9.19985 1.61341 9.57289 1.67917C9.94594 1.74494 10.2776 1.95618 10.4949 2.26643L11.4067 3.56821C11.42 3.58726 11.4328 3.60667 11.4449 3.62643L2.72527 5.96321ZM0.768132 10.6571L0.372775 9.18143C0.274838 8.81543 0.326304 8.42552 0.515849 8.09746C0.705394 7.76941 1.01749 7.53009 1.38349 7.43214L15.8721 3.55C16.238 3.45193 16.6279 3.50324 16.956 3.69265C17.2842 3.88206 17.5236 4.19405 17.6217 4.56L18.0328 6.095C18.0908 6.31171 18.0838 6.54071 18.0126 6.75346C17.9415 6.96622 17.8092 7.15332 17.6324 7.29143C17.3546 7.50813 17.147 7.80218 17.0359 8.13656C16.9248 8.47095 16.9151 8.83073 17.0079 9.17064C17.1008 9.51054 17.2922 9.81537 17.5579 10.0468C17.8237 10.2782 18.1519 10.4258 18.5013 10.4711C18.7172 10.4992 18.9198 10.5908 19.0836 10.7341C19.2473 10.8775 19.3649 11.0662 19.4213 11.2764L19.8399 12.8396C19.938 13.2056 19.8867 13.5955 19.6973 13.9236C19.5079 14.2517 19.1959 14.4912 18.8299 14.5893L4.34063 18.4714C3.97473 18.5694 3.5849 18.518 3.25687 18.3286C2.92883 18.1392 2.68944 17.8273 2.59135 17.4614L2.19742 15.9907C2.13516 15.7593 2.14114 15.5148 2.21464 15.2867C2.28814 15.0585 2.42604 14.8565 2.6117 14.705C2.87849 14.4872 3.07663 14.197 3.18226 13.8692C3.28789 13.5414 3.2965 13.1901 3.20706 12.8575C3.11761 12.5249 2.93393 12.2253 2.67812 11.9947C2.42232 11.7641 2.10531 11.6124 1.76527 11.5579C1.53004 11.5199 1.3108 11.4148 1.13395 11.2551C0.957096 11.0954 0.830181 10.888 0.768489 10.6579M13.4392 8.26893C13.5767 8.234 13.7059 8.1721 13.8193 8.08684C13.9327 8.00157 14.0281 7.89463 14.0998 7.77222C14.1715 7.64981 14.2183 7.51437 14.2372 7.37376C14.2562 7.23315 14.2471 7.09018 14.2103 6.95313C14.1736 6.81609 14.11 6.6877 14.0233 6.57542C13.9365 6.46315 13.8284 6.36922 13.705 6.29909C13.5817 6.22896 13.4456 6.18402 13.3048 6.16689C13.164 6.14976 13.0211 6.16077 12.8846 6.19929C12.6134 6.27577 12.3833 6.45597 12.244 6.70088C12.1048 6.94579 12.0676 7.23569 12.1405 7.50782C12.2134 7.77995 12.3906 8.01241 12.6337 8.15486C12.8768 8.29731 13.1661 8.33829 13.4392 8.26893ZM14.1785 11.0289C14.3144 10.9925 14.4418 10.9297 14.5535 10.8441C14.6651 10.7584 14.7588 10.6517 14.8292 10.5298C14.8995 10.408 14.9452 10.2735 14.9636 10.134C14.982 9.99446 14.9727 9.8527 14.9363 9.71679C14.9 9.58087 14.8371 9.45345 14.7515 9.3418C14.6659 9.23016 14.5591 9.13648 14.4372 9.0661C14.3154 8.99573 14.1809 8.95004 14.0414 8.93165C13.9019 8.91327 13.7601 8.92253 13.6242 8.95893C13.3497 9.03248 13.1157 9.21206 12.9736 9.45817C12.8315 9.70428 12.793 9.99675 12.8665 10.2712C12.9401 10.5457 13.1197 10.7798 13.3658 10.9219C13.6119 11.064 13.904 11.1025 14.1785 11.0289ZM14.9185 13.7886C15.0564 13.754 15.186 13.6923 15.2998 13.6072C15.4136 13.522 15.5094 13.4151 15.5814 13.2926C15.6535 13.17 15.7005 13.0344 15.7196 12.8935C15.7388 12.7527 15.7297 12.6094 15.6929 12.4721C15.6561 12.3348 15.5924 12.2062 15.5054 12.0938C15.4185 11.9813 15.31 11.8873 15.1863 11.8172C15.0627 11.7471 14.9263 11.7023 14.7851 11.6854C14.644 11.6686 14.5009 11.68 14.3642 11.7189C14.0938 11.796 13.8645 11.9763 13.7259 12.2209C13.5872 12.4655 13.5503 12.7549 13.623 13.0265C13.6957 13.2981 13.8723 13.5302 14.1147 13.6728C14.3571 13.8154 14.6457 13.8569 14.9185 13.7886Z" fill="#0078BF"/>
</svg>
