<svg width="7" height="11" viewBox="0 0 7 11" fill="none" xmlns="http://www.w3.org/2000/svg">
<g clip-path="url(#clip0_2233_4406)">
<path d="M6.77371 2.55043V3.31108C6.77371 3.38068 6.75108 3.43786 6.70582 3.4826C6.66056 3.52734 6.60273 3.54972 6.53233 3.54972H5.26509C5.14943 4.26562 4.82507 4.8473 4.29203 5.29474C3.75898 5.74219 3.06501 6.01562 2.21013 6.11506C3.04993 7 4.20402 8.33239 5.67241 10.1122C5.74282 10.1918 5.75287 10.2763 5.70259 10.3658C5.66236 10.4553 5.58944 10.5 5.48384 10.5H4.01293C3.93247 10.5 3.86961 10.4702 3.82435 10.4105C2.28556 8.58594 1.03341 7.16655 0.0678879 6.15234C0.0226293 6.1076 0 6.05291 0 5.98828V5.04119C0 4.97656 0.0238865 4.92063 0.0716595 4.8734C0.119432 4.82617 0.176006 4.80256 0.241379 4.80256H1.08621C1.75 4.80256 2.2843 4.69567 2.68912 4.48189C3.09393 4.26811 3.35165 3.95739 3.46228 3.54972H0.241379C0.170977 3.54972 0.113147 3.52734 0.0678879 3.4826C0.0226293 3.43786 0 3.38068 0 3.31108V2.55043C0 2.48082 0.0226293 2.42365 0.0678879 2.37891C0.113147 2.33416 0.170977 2.31179 0.241379 2.31179H3.35668C3.07004 1.75 2.39619 1.46911 1.33513 1.46911H0.241379C0.176006 1.46911 0.119432 1.44549 0.0716595 1.39826C0.0238865 1.35103 0 1.2951 0 1.23047V0.238636C0 0.169034 0.0226293 0.111861 0.0678879 0.0671165C0.113147 0.0223722 0.170977 0 0.241379 0H6.51724C6.58764 0 6.64547 0.0223722 6.69073 0.0671165C6.73599 0.111861 6.75862 0.169034 6.75862 0.238636V0.99929C6.75862 1.06889 6.73599 1.12607 6.69073 1.17081C6.64547 1.21555 6.58764 1.23793 6.51724 1.23793H4.7597C4.99605 1.54119 5.15697 1.89915 5.24246 2.31179H6.53233C6.60273 2.31179 6.66056 2.33416 6.70582 2.37891C6.75108 2.42365 6.77371 2.48082 6.77371 2.55043Z" fill="#939393"/>
</g>
<defs>
<clipPath id="clip0_2233_4406">
<rect width="7" height="10.5" fill="white"/>
</clipPath>
</defs>
</svg>
