<svg width="9" height="14" viewBox="0 0 9 14" fill="none" xmlns="http://www.w3.org/2000/svg">
<g clip-path="url(#clip0_1923_5322)">
<path d="M8.70905 3.40057V4.41477C8.70905 4.50758 8.67996 4.58381 8.62177 4.64347C8.56358 4.70312 8.48922 4.73295 8.39871 4.73295H6.7694C6.62069 5.6875 6.20366 6.46307 5.51832 7.05966C4.83297 7.65625 3.94073 8.02083 2.84159 8.15341C3.92134 9.33333 5.40517 11.1098 7.2931 13.483C7.38362 13.589 7.39655 13.7017 7.3319 13.821C7.28017 13.9403 7.18642 14 7.05065 14H5.15948C5.05603 14 4.97522 13.9602 4.91703 13.8807C2.93858 11.4479 1.32866 9.5554 0.0872845 8.20312C0.0290948 8.14347 0 8.07055 0 7.98438V6.72159C0 6.63542 0.0307112 6.56084 0.0921336 6.49787C0.153556 6.4349 0.226293 6.40341 0.310345 6.40341H1.39655C2.25 6.40341 2.93696 6.26089 3.45744 5.97585C3.97791 5.69081 4.30927 5.27652 4.45151 4.73295H0.310345C0.219828 4.73295 0.145474 4.70312 0.0872845 4.64347C0.0290948 4.58381 0 4.50758 0 4.41477V3.40057C0 3.30777 0.0290948 3.23153 0.0872845 3.17188C0.145474 3.11222 0.219828 3.08239 0.310345 3.08239H4.31573C3.9472 2.33333 3.08082 1.95881 1.71659 1.95881H0.310345C0.226293 1.95881 0.153556 1.92732 0.0921336 1.86435C0.0307112 1.80137 0 1.7268 0 1.64062V0.318182C0 0.225379 0.0290948 0.149148 0.0872845 0.0894886C0.145474 0.0298295 0.219828 0 0.310345 0H8.37931C8.46983 0 8.54418 0.0298295 8.60237 0.0894886C8.66056 0.149148 8.68966 0.225379 8.68966 0.318182V1.33239C8.68966 1.42519 8.66056 1.50142 8.60237 1.56108C8.54418 1.62074 8.46983 1.65057 8.37931 1.65057H6.11961C6.42349 2.05492 6.63039 2.5322 6.7403 3.08239H8.39871C8.48922 3.08239 8.56358 3.11222 8.62177 3.17188C8.67996 3.23153 8.70905 3.30777 8.70905 3.40057Z" fill="#E31837"/>
</g>
<defs>
<clipPath id="clip0_1923_5322">
<rect width="9" height="14" fill="white"/>
</clipPath>
</defs>
</svg>
