<svg width="10" height="15" viewBox="0 0 10 15" fill="none" xmlns="http://www.w3.org/2000/svg">
<g clip-path="url(#clip0_2233_4411)">
<path d="M9.67672 3.64347V4.73011C9.67672 4.82955 9.6444 4.91122 9.57974 4.97514C9.51509 5.03906 9.43247 5.07102 9.3319 5.07102H7.52155C7.35632 6.09375 6.89296 6.92472 6.13147 7.56392C5.36997 8.20312 4.37859 8.59375 3.15733 8.7358C4.35704 10 6.00575 11.9034 8.10345 14.446C8.20402 14.5597 8.21839 14.6804 8.14655 14.8082C8.08908 14.9361 7.98491 15 7.83405 15H5.73276C5.61782 15 5.52802 14.9574 5.46336 14.8722C3.26509 12.2656 1.47629 10.2379 0.0969828 8.78906C0.0323276 8.72514 0 8.64702 0 8.55469V7.2017C0 7.10938 0.0341236 7.02947 0.102371 6.962C0.170618 6.89453 0.251437 6.8608 0.344828 6.8608H1.55172C2.5 6.8608 3.26329 6.7081 3.84159 6.4027C4.4199 6.0973 4.78807 5.65341 4.94612 5.07102H0.344828C0.244253 5.07102 0.161638 5.03906 0.0969828 4.97514C0.0323276 4.91122 0 4.82955 0 4.73011V3.64347C0 3.54403 0.0323276 3.46236 0.0969828 3.39844C0.161638 3.33452 0.244253 3.30256 0.344828 3.30256H4.79526C4.38578 2.5 3.42313 2.09872 1.90733 2.09872H0.344828C0.251437 2.09872 0.170618 2.06499 0.102371 1.99751C0.0341236 1.93004 0 1.85014 0 1.75781V0.340909C0 0.241477 0.0323276 0.159801 0.0969828 0.0958807C0.161638 0.0319602 0.244253 0 0.344828 0H9.31034C9.41092 0 9.49354 0.0319602 9.55819 0.0958807C9.62284 0.159801 9.65517 0.241477 9.65517 0.340909V1.42756C9.65517 1.52699 9.62284 1.60866 9.55819 1.67259C9.49354 1.73651 9.41092 1.76847 9.31034 1.76847H6.79957C7.13721 2.2017 7.3671 2.71307 7.48922 3.30256H9.3319C9.43247 3.30256 9.51509 3.33452 9.57974 3.39844C9.6444 3.46236 9.67672 3.54403 9.67672 3.64347Z" fill="#282828"/>
<path d="M9.67672 3.64347V4.73011C9.67672 4.82955 9.6444 4.91122 9.57974 4.97514C9.51509 5.03906 9.43247 5.07102 9.3319 5.07102H7.52155C7.35632 6.09375 6.89296 6.92472 6.13147 7.56392C5.36997 8.20312 4.37859 8.59375 3.15733 8.7358C4.35704 10 6.00575 11.9034 8.10345 14.446C8.20402 14.5597 8.21839 14.6804 8.14655 14.8082C8.08908 14.9361 7.98491 15 7.83405 15H5.73276C5.61782 15 5.52802 14.9574 5.46336 14.8722C3.26509 12.2656 1.47629 10.2379 0.0969828 8.78906C0.0323276 8.72514 0 8.64702 0 8.55469V7.2017C0 7.10938 0.0341236 7.02947 0.102371 6.962C0.170618 6.89453 0.251437 6.8608 0.344828 6.8608H1.55172C2.5 6.8608 3.26329 6.7081 3.84159 6.4027C4.4199 6.0973 4.78807 5.65341 4.94612 5.07102H0.344828C0.244253 5.07102 0.161638 5.03906 0.0969828 4.97514C0.0323276 4.91122 0 4.82955 0 4.73011V3.64347C0 3.54403 0.0323276 3.46236 0.0969828 3.39844C0.161638 3.33452 0.244253 3.30256 0.344828 3.30256H4.79526C4.38578 2.5 3.42313 2.09872 1.90733 2.09872H0.344828C0.251437 2.09872 0.170618 2.06499 0.102371 1.99751C0.0341236 1.93004 0 1.85014 0 1.75781V0.340909C0 0.241477 0.0323276 0.159801 0.0969828 0.0958807C0.161638 0.0319602 0.244253 0 0.344828 0H9.31034C9.41092 0 9.49354 0.0319602 9.55819 0.0958807C9.62284 0.159801 9.65517 0.241477 9.65517 0.340909V1.42756C9.65517 1.52699 9.62284 1.60866 9.55819 1.67259C9.49354 1.73651 9.41092 1.76847 9.31034 1.76847H6.79957C7.13721 2.2017 7.3671 2.71307 7.48922 3.30256H9.3319C9.43247 3.30256 9.51509 3.33452 9.57974 3.39844C9.6444 3.46236 9.67672 3.54403 9.67672 3.64347Z" fill="black" fill-opacity="0.2"/>
<path d="M9.67672 3.64347V4.73011C9.67672 4.82955 9.6444 4.91122 9.57974 4.97514C9.51509 5.03906 9.43247 5.07102 9.3319 5.07102H7.52155C7.35632 6.09375 6.89296 6.92472 6.13147 7.56392C5.36997 8.20312 4.37859 8.59375 3.15733 8.7358C4.35704 10 6.00575 11.9034 8.10345 14.446C8.20402 14.5597 8.21839 14.6804 8.14655 14.8082C8.08908 14.9361 7.98491 15 7.83405 15H5.73276C5.61782 15 5.52802 14.9574 5.46336 14.8722C3.26509 12.2656 1.47629 10.2379 0.0969828 8.78906C0.0323276 8.72514 0 8.64702 0 8.55469V7.2017C0 7.10938 0.0341236 7.02947 0.102371 6.962C0.170618 6.89453 0.251437 6.8608 0.344828 6.8608H1.55172C2.5 6.8608 3.26329 6.7081 3.84159 6.4027C4.4199 6.0973 4.78807 5.65341 4.94612 5.07102H0.344828C0.244253 5.07102 0.161638 5.03906 0.0969828 4.97514C0.0323276 4.91122 0 4.82955 0 4.73011V3.64347C0 3.54403 0.0323276 3.46236 0.0969828 3.39844C0.161638 3.33452 0.244253 3.30256 0.344828 3.30256H4.79526C4.38578 2.5 3.42313 2.09872 1.90733 2.09872H0.344828C0.251437 2.09872 0.170618 2.06499 0.102371 1.99751C0.0341236 1.93004 0 1.85014 0 1.75781V0.340909C0 0.241477 0.0323276 0.159801 0.0969828 0.0958807C0.161638 0.0319602 0.244253 0 0.344828 0H9.31034C9.41092 0 9.49354 0.0319602 9.55819 0.0958807C9.62284 0.159801 9.65517 0.241477 9.65517 0.340909V1.42756C9.65517 1.52699 9.62284 1.60866 9.55819 1.67259C9.49354 1.73651 9.41092 1.76847 9.31034 1.76847H6.79957C7.13721 2.2017 7.3671 2.71307 7.48922 3.30256H9.3319C9.43247 3.30256 9.51509 3.33452 9.57974 3.39844C9.6444 3.46236 9.67672 3.54403 9.67672 3.64347Z" fill="black" fill-opacity="0.2"/>
<path d="M9.67672 3.64347V4.73011C9.67672 4.82955 9.6444 4.91122 9.57974 4.97514C9.51509 5.03906 9.43247 5.07102 9.3319 5.07102H7.52155C7.35632 6.09375 6.89296 6.92472 6.13147 7.56392C5.36997 8.20312 4.37859 8.59375 3.15733 8.7358C4.35704 10 6.00575 11.9034 8.10345 14.446C8.20402 14.5597 8.21839 14.6804 8.14655 14.8082C8.08908 14.9361 7.98491 15 7.83405 15H5.73276C5.61782 15 5.52802 14.9574 5.46336 14.8722C3.26509 12.2656 1.47629 10.2379 0.0969828 8.78906C0.0323276 8.72514 0 8.64702 0 8.55469V7.2017C0 7.10938 0.0341236 7.02947 0.102371 6.962C0.170618 6.89453 0.251437 6.8608 0.344828 6.8608H1.55172C2.5 6.8608 3.26329 6.7081 3.84159 6.4027C4.4199 6.0973 4.78807 5.65341 4.94612 5.07102H0.344828C0.244253 5.07102 0.161638 5.03906 0.0969828 4.97514C0.0323276 4.91122 0 4.82955 0 4.73011V3.64347C0 3.54403 0.0323276 3.46236 0.0969828 3.39844C0.161638 3.33452 0.244253 3.30256 0.344828 3.30256H4.79526C4.38578 2.5 3.42313 2.09872 1.90733 2.09872H0.344828C0.251437 2.09872 0.170618 2.06499 0.102371 1.99751C0.0341236 1.93004 0 1.85014 0 1.75781V0.340909C0 0.241477 0.0323276 0.159801 0.0969828 0.0958807C0.161638 0.0319602 0.244253 0 0.344828 0H9.31034C9.41092 0 9.49354 0.0319602 9.55819 0.0958807C9.62284 0.159801 9.65517 0.241477 9.65517 0.340909V1.42756C9.65517 1.52699 9.62284 1.60866 9.55819 1.67259C9.49354 1.73651 9.41092 1.76847 9.31034 1.76847H6.79957C7.13721 2.2017 7.3671 2.71307 7.48922 3.30256H9.3319C9.43247 3.30256 9.51509 3.33452 9.57974 3.39844C9.6444 3.46236 9.67672 3.54403 9.67672 3.64347Z" fill="black" fill-opacity="0.2"/>
</g>
<defs>
<clipPath id="clip0_2233_4411">
<rect width="10" height="15" fill="white"/>
</clipPath>
</defs>
</svg>
