<svg width="20" height="20" viewBox="0 0 20 20" fill="none" xmlns="http://www.w3.org/2000/svg">
<g clip-path="url(#clip0_2441_2192)">
<path d="M9.1665 12.5C11.6665 12.5 15.8332 15.8333 15.8332 15.8333V2.5C15.8332 2.5 11.6665 5.83333 9.1665 5.83333M9.1665 12.5V5.83333M9.1665 12.5H4.99984C3.159 12.5 1.6665 11.7592 1.6665 9.16667C1.6665 6.57417 3.159 5.83333 4.99984 5.83333H9.1665M4.1665 12.5L6.6665 19.1667H9.99984L7.49984 12.5M15.8332 11.6667C16.1615 11.6667 16.4866 11.602 16.7899 11.4764C17.0932 11.3507 17.3688 11.1666 17.6009 10.9344C17.8331 10.7023 18.0172 10.4267 18.1429 10.1234C18.2685 9.82006 18.3332 9.49497 18.3332 9.16667C18.3332 8.83836 18.2685 8.51327 18.1429 8.20996C18.0172 7.90664 17.8331 7.63105 17.6009 7.3989C17.3688 7.16675 17.0932 6.9826 16.7899 6.85697C16.4866 6.73133 16.1615 6.66667 15.8332 6.66667M9.1665 15.8333C9.99984 15.8333 11.6665 15 11.6665 13.3333" stroke="white" stroke-width="1.5"/>
</g>
<defs>
<clipPath id="clip0_2441_2192">
<rect width="20" height="20" fill="white"/>
</clipPath>
</defs>
</svg>
