<svg width="27" height="18" viewBox="0 0 27 18" fill="none" xmlns="http://www.w3.org/2000/svg">
<path d="M25.2 10.0369H26.4V7.63691H25.2V8.83691V10.0369ZM0.351423 7.98839C-0.117207 8.45702 -0.117207 9.21681 0.351423 9.68544L7.98818 17.3222C8.45681 17.7908 9.2166 17.7908 9.68523 17.3222C10.1539 16.8536 10.1539 16.0938 9.68523 15.6251L2.89701 8.83691L9.68523 2.04869C10.1539 1.58006 10.1539 0.820262 9.68523 0.351632C9.2166 -0.116997 8.45681 -0.116997 7.98818 0.351632L0.351423 7.98839ZM25.2 8.83691V7.63691H1.19995V8.83691V10.0369H25.2V8.83691Z" fill="#282828"/>
<path d="M25.2 10.0369H26.4V7.63691H25.2V8.83691V10.0369ZM0.351423 7.98839C-0.117207 8.45702 -0.117207 9.21681 0.351423 9.68544L7.98818 17.3222C8.45681 17.7908 9.2166 17.7908 9.68523 17.3222C10.1539 16.8536 10.1539 16.0938 9.68523 15.6251L2.89701 8.83691L9.68523 2.04869C10.1539 1.58006 10.1539 0.820262 9.68523 0.351632C9.2166 -0.116997 8.45681 -0.116997 7.98818 0.351632L0.351423 7.98839ZM25.2 8.83691V7.63691H1.19995V8.83691V10.0369H25.2V8.83691Z" fill="black" fill-opacity="0.2"/>
<path d="M25.2 10.0369H26.4V7.63691H25.2V8.83691V10.0369ZM0.351423 7.98839C-0.117207 8.45702 -0.117207 9.21681 0.351423 9.68544L7.98818 17.3222C8.45681 17.7908 9.2166 17.7908 9.68523 17.3222C10.1539 16.8536 10.1539 16.0938 9.68523 15.6251L2.89701 8.83691L9.68523 2.04869C10.1539 1.58006 10.1539 0.820262 9.68523 0.351632C9.2166 -0.116997 8.45681 -0.116997 7.98818 0.351632L0.351423 7.98839ZM25.2 8.83691V7.63691H1.19995V8.83691V10.0369H25.2V8.83691Z" fill="black" fill-opacity="0.2"/>
<path d="M25.2 10.0369H26.4V7.63691H25.2V8.83691V10.0369ZM0.351423 7.98839C-0.117207 8.45702 -0.117207 9.21681 0.351423 9.68544L7.98818 17.3222C8.45681 17.7908 9.2166 17.7908 9.68523 17.3222C10.1539 16.8536 10.1539 16.0938 9.68523 15.6251L2.89701 8.83691L9.68523 2.04869C10.1539 1.58006 10.1539 0.820262 9.68523 0.351632C9.2166 -0.116997 8.45681 -0.116997 7.98818 0.351632L0.351423 7.98839ZM25.2 8.83691V7.63691H1.19995V8.83691V10.0369H25.2V8.83691Z" fill="black" fill-opacity="0.2"/>
</svg>
