<svg width="18" height="18" viewBox="0 0 18 18" fill="none" xmlns="http://www.w3.org/2000/svg">
<g clip-path="url(#clip0_2984_6350)">
<path d="M9 1.5C6.0975 1.5 3.75 3.8475 3.75 6.75C3.75 8.055 4.125 9.2775 4.8075 10.38C5.52 11.535 6.4575 12.525 7.1775 13.68C7.53 14.2425 7.785 14.7675 8.055 15.375C8.25 15.7875 8.4075 16.5 9 16.5C9.5925 16.5 9.75 15.7875 9.9375 15.375C10.215 14.7675 10.4625 14.2425 10.815 13.68C11.535 12.5325 12.4725 11.5425 13.185 10.38C13.875 9.2775 14.25 8.055 14.25 6.75C14.25 3.8475 11.9025 1.5 9 1.5ZM9 8.8125C7.965 8.8125 7.125 7.9725 7.125 6.9375C7.125 5.9025 7.965 5.0625 9 5.0625C10.035 5.0625 10.875 5.9025 10.875 6.9375C10.875 7.9725 10.035 8.8125 9 8.8125Z" fill="#282828"/>
<path d="M9 1.5C6.0975 1.5 3.75 3.8475 3.75 6.75C3.75 8.055 4.125 9.2775 4.8075 10.38C5.52 11.535 6.4575 12.525 7.1775 13.68C7.53 14.2425 7.785 14.7675 8.055 15.375C8.25 15.7875 8.4075 16.5 9 16.5C9.5925 16.5 9.75 15.7875 9.9375 15.375C10.215 14.7675 10.4625 14.2425 10.815 13.68C11.535 12.5325 12.4725 11.5425 13.185 10.38C13.875 9.2775 14.25 8.055 14.25 6.75C14.25 3.8475 11.9025 1.5 9 1.5ZM9 8.8125C7.965 8.8125 7.125 7.9725 7.125 6.9375C7.125 5.9025 7.965 5.0625 9 5.0625C10.035 5.0625 10.875 5.9025 10.875 6.9375C10.875 7.9725 10.035 8.8125 9 8.8125Z" fill="black" fill-opacity="0.2"/>
<path d="M9 1.5C6.0975 1.5 3.75 3.8475 3.75 6.75C3.75 8.055 4.125 9.2775 4.8075 10.38C5.52 11.535 6.4575 12.525 7.1775 13.68C7.53 14.2425 7.785 14.7675 8.055 15.375C8.25 15.7875 8.4075 16.5 9 16.5C9.5925 16.5 9.75 15.7875 9.9375 15.375C10.215 14.7675 10.4625 14.2425 10.815 13.68C11.535 12.5325 12.4725 11.5425 13.185 10.38C13.875 9.2775 14.25 8.055 14.25 6.75C14.25 3.8475 11.9025 1.5 9 1.5ZM9 8.8125C7.965 8.8125 7.125 7.9725 7.125 6.9375C7.125 5.9025 7.965 5.0625 9 5.0625C10.035 5.0625 10.875 5.9025 10.875 6.9375C10.875 7.9725 10.035 8.8125 9 8.8125Z" fill="black" fill-opacity="0.2"/>
<path d="M9 1.5C6.0975 1.5 3.75 3.8475 3.75 6.75C3.75 8.055 4.125 9.2775 4.8075 10.38C5.52 11.535 6.4575 12.525 7.1775 13.68C7.53 14.2425 7.785 14.7675 8.055 15.375C8.25 15.7875 8.4075 16.5 9 16.5C9.5925 16.5 9.75 15.7875 9.9375 15.375C10.215 14.7675 10.4625 14.2425 10.815 13.68C11.535 12.5325 12.4725 11.5425 13.185 10.38C13.875 9.2775 14.25 8.055 14.25 6.75C14.25 3.8475 11.9025 1.5 9 1.5ZM9 8.8125C7.965 8.8125 7.125 7.9725 7.125 6.9375C7.125 5.9025 7.965 5.0625 9 5.0625C10.035 5.0625 10.875 5.9025 10.875 6.9375C10.875 7.9725 10.035 8.8125 9 8.8125Z" fill="black" fill-opacity="0.2"/>
</g>
<defs>
<clipPath id="clip0_2984_6350">
<rect width="18" height="18" fill="white"/>
</clipPath>
</defs>
</svg>
