<svg width="23" height="23" viewBox="0 0 23 23" fill="none" xmlns="http://www.w3.org/2000/svg">
<g clip-path="url(#clip0_1923_5447)">
<path d="M11.5003 1.9165C7.79158 1.9165 4.79199 4.91609 4.79199 8.62484C4.79199 10.2923 5.27116 11.8544 6.14324 13.2632C7.05366 14.739 8.25158 16.004 9.17158 17.4798C9.62199 18.1986 9.94783 18.8694 10.2928 19.6457C10.542 20.1728 10.7432 21.0832 11.5003 21.0832C12.2574 21.0832 12.4587 20.1728 12.6982 19.6457C13.0528 18.8694 13.3691 18.1986 13.8195 17.4798C14.7395 16.0136 15.9374 14.7486 16.8478 13.2632C17.7295 11.8544 18.2087 10.2923 18.2087 8.62484C18.2087 4.91609 15.2091 1.9165 11.5003 1.9165ZM11.5003 11.2603C10.1778 11.2603 9.10449 10.1869 9.10449 8.86442C9.10449 7.54192 10.1778 6.46859 11.5003 6.46859C12.8228 6.46859 13.8962 7.54192 13.8962 8.86442C13.8962 10.1869 12.8228 11.2603 11.5003 11.2603Z" fill="#5B5B5B"/>
</g>
<defs>
<clipPath id="clip0_1923_5447">
<rect width="23" height="23" fill="white"/>
</clipPath>
</defs>
</svg>
