<svg width="26" height="29" viewBox="0 0 26 29" fill="none" xmlns="http://www.w3.org/2000/svg">
<path d="M11.7657 13.7538L0.107422 26.4069C0.108517 26.4092 0.108517 26.4125 0.109612 26.4148C0.46767 27.7887 1.69405 28.7998 3.15037 28.7998C3.7329 28.7998 4.2793 28.6386 4.74795 28.3564L4.78518 28.334L17.9074 20.591L11.7657 13.7538Z" fill="#EA4335"/>
<path d="M23.5598 11.5994L23.5488 11.5916L17.8834 8.23348L11.5007 14.0416L17.9064 20.5898L23.5411 17.2653C24.5288 16.7189 25.2 15.654 25.2 14.4268C25.2 13.2063 24.5387 12.147 23.5598 11.5994Z" fill="#FBBC04"/>
<path d="M0.107308 2.39209C0.0372293 2.65635 0 2.93405 0 3.2207V25.5797C0 25.8664 0.0372293 26.1441 0.108403 26.4072L12.1663 14.0777L0.107308 2.39209Z" fill="#4285F4"/>
<path d="M11.8519 14.3994L17.8853 8.23075L4.77837 0.459732C4.30205 0.167479 3.7458 -0.000481606 3.15122 -0.000481606C1.6949 -0.000481606 0.466331 1.01289 0.108272 2.38793C0.108272 2.38905 0.107178 2.39017 0.107178 2.39129L11.8519 14.3994Z" fill="#34A853"/>
</svg>
