<svg width="23" height="23" viewBox="0 0 23 23" fill="none" xmlns="http://www.w3.org/2000/svg">
<path d="M10.542 12.4582H5.75033C5.4788 12.4582 5.25136 12.3662 5.068 12.1822C4.88463 11.9982 4.79263 11.7707 4.792 11.4998C4.79136 11.229 4.88336 11.0015 5.068 10.8175C5.25263 10.6335 5.48008 10.5415 5.75033 10.5415H10.542V5.74984C10.542 5.47831 10.634 5.25087 10.818 5.06751C11.002 4.88415 11.2294 4.79215 11.5003 4.79151C11.7712 4.79087 11.999 4.88287 12.1836 5.06751C12.3683 5.25215 12.4599 5.47959 12.4587 5.74984V10.5415H17.2503C17.5219 10.5415 17.7496 10.6335 17.9336 10.8175C18.1176 11.0015 18.2093 11.229 18.2087 11.4998C18.208 11.7707 18.116 11.9985 17.9327 12.1831C17.7493 12.3678 17.5219 12.4595 17.2503 12.4582H12.4587V17.2498C12.4587 17.5214 12.3667 17.7491 12.1827 17.9331C11.9987 18.1171 11.7712 18.2088 11.5003 18.2082C11.2294 18.2075 11.002 18.1155 10.818 17.9322C10.634 17.7488 10.542 17.5214 10.542 17.2498V12.4582Z" fill="#0078BF"/>
</svg>
