<svg width="24" height="24" viewBox="0 0 24 24" fill="none" xmlns="http://www.w3.org/2000/svg">
<path d="M6.75985 3.33122C6.91381 3.22854 7.09862 3.18241 7.28277 3.20069C7.46693 3.21898 7.63906 3.30055 7.76982 3.4315C7.90059 3.56246 7.98191 3.7347 7.99993 3.91888C8.01795 4.10307 7.97155 4.2878 7.86865 4.44162L7.76465 4.56642L5.93105 6.40002H14.3998C16.3094 6.40002 18.1408 7.15859 19.491 8.50885C20.8413 9.85911 21.5998 11.6905 21.5998 13.6C21.5998 15.5096 20.8413 17.3409 19.491 18.6912C18.1408 20.0415 16.3094 20.8 14.3998 20.8H7.99985C7.78767 20.8 7.58419 20.7157 7.43416 20.5657C7.28413 20.4157 7.19985 20.2122 7.19985 20C7.19985 19.7878 7.28413 19.5844 7.43416 19.4343C7.58419 19.2843 7.78767 19.2 7.99985 19.2H14.3998C15.8851 19.2 17.3094 18.61 18.3596 17.5598C19.4098 16.5096 19.9998 15.0852 19.9998 13.6C19.9998 12.1148 19.4098 10.6904 18.3596 9.64022C17.3094 8.59002 15.8851 8.00002 14.3998 8.00002H5.93105L7.76465 9.83522L7.86865 9.96002C7.97062 10.1139 8.01625 10.2982 7.99782 10.4819C7.97938 10.6655 7.89802 10.8372 7.7675 10.9677C7.63699 11.0982 7.46537 11.1796 7.28172 11.198C7.09807 11.2164 6.9137 11.1708 6.75985 11.0688L6.63345 10.9664L3.43345 7.76642C3.28347 7.6164 3.19922 7.41295 3.19922 7.20082C3.19922 6.98869 3.28347 6.78524 3.43345 6.63522L6.63345 3.43522L6.75985 3.33122Z" fill="#0078BF"/>
</svg>
