<svg width="27" height="18" viewBox="0 0 27 18" fill="none" xmlns="http://www.w3.org/2000/svg">
<path d="M1.2002 7.63691H0.000195265V10.0369H1.2002V8.83691V7.63691ZM26.0487 9.68544C26.5174 9.21681 26.5174 8.45702 26.0487 7.98839L18.412 0.351632C17.9433 -0.116997 17.1835 -0.116997 16.7149 0.351632C16.2463 0.820262 16.2463 1.58006 16.7149 2.04869L23.5031 8.83691L16.7149 15.6251C16.2463 16.0938 16.2463 16.8536 16.7149 17.3222C17.1835 17.7908 17.9433 17.7908 18.412 17.3222L26.0487 9.68544ZM1.2002 8.83691V10.0369H25.2002V8.83691V7.63691H1.2002V8.83691Z" fill="#282828"/>
<path d="M1.2002 7.63691H0.000195265V10.0369H1.2002V8.83691V7.63691ZM26.0487 9.68544C26.5174 9.21681 26.5174 8.45702 26.0487 7.98839L18.412 0.351632C17.9433 -0.116997 17.1835 -0.116997 16.7149 0.351632C16.2463 0.820262 16.2463 1.58006 16.7149 2.04869L23.5031 8.83691L16.7149 15.6251C16.2463 16.0938 16.2463 16.8536 16.7149 17.3222C17.1835 17.7908 17.9433 17.7908 18.412 17.3222L26.0487 9.68544ZM1.2002 8.83691V10.0369H25.2002V8.83691V7.63691H1.2002V8.83691Z" fill="black" fill-opacity="0.2"/>
<path d="M1.2002 7.63691H0.000195265V10.0369H1.2002V8.83691V7.63691ZM26.0487 9.68544C26.5174 9.21681 26.5174 8.45702 26.0487 7.98839L18.412 0.351632C17.9433 -0.116997 17.1835 -0.116997 16.7149 0.351632C16.2463 0.820262 16.2463 1.58006 16.7149 2.04869L23.5031 8.83691L16.7149 15.6251C16.2463 16.0938 16.2463 16.8536 16.7149 17.3222C17.1835 17.7908 17.9433 17.7908 18.412 17.3222L26.0487 9.68544ZM1.2002 8.83691V10.0369H25.2002V8.83691V7.63691H1.2002V8.83691Z" fill="black" fill-opacity="0.2"/>
<path d="M1.2002 7.63691H0.000195265V10.0369H1.2002V8.83691V7.63691ZM26.0487 9.68544C26.5174 9.21681 26.5174 8.45702 26.0487 7.98839L18.412 0.351632C17.9433 -0.116997 17.1835 -0.116997 16.7149 0.351632C16.2463 0.820262 16.2463 1.58006 16.7149 2.04869L23.5031 8.83691L16.7149 15.6251C16.2463 16.0938 16.2463 16.8536 16.7149 17.3222C17.1835 17.7908 17.9433 17.7908 18.412 17.3222L26.0487 9.68544ZM1.2002 8.83691V10.0369H25.2002V8.83691V7.63691H1.2002V8.83691Z" fill="black" fill-opacity="0.2"/>
</svg>
